<svg xmlns="http://www.w3.org/2000/svg" viewBox="0 0 40 40"><path d="M14.28 11c-1.62 0-3.16 0-4.21.08-.13 0-.36.08-.36.2V28.8c0 .15.07.2.2.2h2.49c.15 0 .2-.07.2-.2v-6.26h1.27c3.69 0 6.69-1.78 6.69-5.92 0-3.14-1.76-5.62-6.28-5.62Zm-.34 9a11.61 11.61 0 0 1-1.32 0v-6.36c.29 0 .91-.05 1.56-.05 2.17 0 3.46 1.05 3.46 3.12 0 2.59-1.8 3.29-3.7 3.29Zm16.38 5.28c0 2.61-2 4-4.7 4a7.12 7.12 0 0 1-3.35-.7c-.11-.05-.13-.13-.13-.26V25.9c0-.16.08-.21.2-.13a6.08 6.08 0 0 0 3.28 1c1.3 0 1.84-.54 1.84-1.28s-.38-1.11-2-2c-2.32-1.11-3.29-2.24-3.29-4.12 0-2.11 1.65-3.86 4.51-3.86a7.42 7.42 0 0 1 2.93.46.35.35 0 0 1 .16.32v2.24c0 .14-.08.22-.24.17a5.5 5.5 0 0 0-2.88-.7c-1.29 0-1.73.66-1.73 1.2s.3 1 2 1.89c2.6 1.22 3.4 2.41 3.4 4.16Z"/></svg>